<mxfile host="app.diagrams.net" modified="2021-04-25T13:06:29.826Z" agent="5.0 (X11; Linux x86_64) AppleWebKit/537.36 (KHTML, like Gecko) Chrome/89.0.4389.114 Safari/537.36" etag="PTAcIwEQ53LIlvLx8OQQ" version="14.6.6" type="github">
  <diagram id="aB3zw2NcG2Q4mAD_KDlb" name="Page-1">
    <mxGraphModel dx="1422" dy="810" grid="1" gridSize="10" guides="1" tooltips="1" connect="1" arrows="1" fold="1" page="1" pageScale="1" pageWidth="850" pageHeight="1100" math="0" shadow="0">
      <root>
        <mxCell id="0" />
        <mxCell id="1" parent="0" />
        <mxCell id="JL3vcxpMVxUZyfELmDcG-5" value="" style="edgeStyle=orthogonalEdgeStyle;rounded=0;orthogonalLoop=1;jettySize=auto;html=1;exitX=1;exitY=0.5;exitDx=0;exitDy=0;exitPerimeter=0;" edge="1" parent="1" source="JL3vcxpMVxUZyfELmDcG-6" target="JL3vcxpMVxUZyfELmDcG-4">
          <mxGeometry relative="1" as="geometry">
            <mxPoint x="140" y="230" as="sourcePoint" />
          </mxGeometry>
        </mxCell>
        <mxCell id="JL3vcxpMVxUZyfELmDcG-8" value="" style="edgeStyle=orthogonalEdgeStyle;rounded=0;orthogonalLoop=1;jettySize=auto;html=1;entryX=0;entryY=0.5;entryDx=0;entryDy=0;entryPerimeter=0;" edge="1" parent="1" source="JL3vcxpMVxUZyfELmDcG-4" target="JL3vcxpMVxUZyfELmDcG-9">
          <mxGeometry relative="1" as="geometry">
            <mxPoint x="470" y="230" as="targetPoint" />
          </mxGeometry>
        </mxCell>
        <mxCell id="JL3vcxpMVxUZyfELmDcG-4" value="NTFT maker (pcap2transcription)" style="rounded=1;whiteSpace=wrap;html=1;" vertex="1" parent="1">
          <mxGeometry x="270" y="200" width="120" height="60" as="geometry" />
        </mxCell>
        <mxCell id="JL3vcxpMVxUZyfELmDcG-6" value="PCAP file" style="whiteSpace=wrap;html=1;shape=mxgraph.basic.document" vertex="1" parent="1">
          <mxGeometry x="30" y="180" width="100" height="100" as="geometry" />
        </mxCell>
        <mxCell id="JL3vcxpMVxUZyfELmDcG-9" value="NTFT file" style="whiteSpace=wrap;html=1;shape=mxgraph.basic.document" vertex="1" parent="1">
          <mxGeometry x="480" y="180" width="100" height="100" as="geometry" />
        </mxCell>
      </root>
    </mxGraphModel>
  </diagram>
</mxfile>
